<svg width="32" height="32" fill="none" xmlns="http://www.w3.org/2000/svg"><path d="M15.208.176.781 6.916a.56.56 0 0 0 .002 1.019l14.54 6.69c.43.198.925.198 1.354 0l14.54-6.69a.56.56 0 0 0 .003-1.019L16.792.176a1.87 1.87 0 0 0-1.584 0Z" fill="#7C3AED"/><path opacity=".64" d="m31.22 15.568-2.98-1.392a1.622 1.622 0 0 0-1.364-.004l-10.199 4.693a1.62 1.62 0 0 1-1.354 0l-10.2-4.693a1.62 1.62 0 0 0-1.363.004L.78 15.568a.56.56 0 0 0 .003 1.019l14.54 6.689a1.613 1.613 0 0 0 1.354 0l14.54-6.69a.56.56 0 0 0 .003-1.018Z" fill="#C4B5FD"/><path d="m31.22 24.144-2.98-1.392a1.622 1.622 0 0 0-1.364-.004L16.677 27.44a1.622 1.622 0 0 1-1.354 0l-10.2-4.693a1.62 1.62 0 0 0-1.363.004L.78 24.144a.56.56 0 0 0 .003 1.017l14.54 6.691c.429.197.925.197 1.354 0l14.54-6.69a.56.56 0 0 0 .003-1.018Z" fill="#1DB5BE"/></svg>