<svg width="30" height="30" fill="none" xmlns="http://www.w3.org/2000/svg"><path d="M5.667.333h-4A1.333 1.333 0 0 0 .333 1.667v26.666a1.333 1.333 0 0 0 1.334 1.334h4V.333Z" fill="#C4B5FD"/><path d="M8.333 29.667h13.334V.333H8.333v29.334ZM15 24.333a1.333 1.333 0 1 1 0-2.666 1.333 1.333 0 0 1 0 2.666Zm0-18.666a1.333 1.333 0 1 1 0 2.667 1.333 1.333 0 0 1 0-2.667Zm0 8a1.333 1.333 0 1 1 0 2.666 1.333 1.333 0 0 1 0-2.666Z" fill="#7C3AED"/><path d="M28.333.333h-4v29.334h4a1.333 1.333 0 0 0 1.334-1.334V1.667A1.334 1.334 0 0 0 28.333.333Z" fill="#1DB5BE"/></svg>