<svg width="28" height="32" fill="none" xmlns="http://www.w3.org/2000/svg"><path d="M26 32H14a1.334 1.334 0 0 1-1.333-1.333V28A1.333 1.333 0 0 1 14 26.667h12A1.333 1.333 0 0 1 27.333 28v2.667A1.333 1.333 0 0 1 26 32Z" fill="#C4B5FD"/><path d="M26 0H2A1.333 1.333 0 0 0 .667 1.333V4A1.333 1.333 0 0 0 2 5.333h24A1.333 1.333 0 0 0 27.333 4V1.333A1.333 1.333 0 0 0 26 0Z" fill="#1DB5BE"/><path d="M26 8H2A1.333 1.333 0 0 0 .667 9.333v13.334A1.333 1.333 0 0 0 2 24h24a1.333 1.333 0 0 0 1.333-1.333V9.333A1.333 1.333 0 0 0 26 8Z" fill="#7C3AED"/></svg>