<svg aria-hidden="true" style="position: absolute; width: 0; height: 0; overflow: hidden;" version="1.1" xmlns="http://www.w3.org/2000/svg" xmlns:xlink="http://www.w3.org/1999/xlink">
<defs>
<symbol id="icon-Group4" viewBox="0 0 31 32">
<path fill="#7c3aed" style="fill: var(--color1, #7c3aed)" d="M11.355 13.247h-9.634c-0.365 0-0.715-0.145-0.973-0.403s-0.403-0.608-0.403-0.973v-9.634c0-0.365 0.145-0.715 0.403-0.973s0.608-0.403 0.973-0.403h9.634c0.365 0 0.715 0.145 0.973 0.403s0.403 0.608 0.403 0.973v9.634c0 0.365-0.145 0.715-0.403 0.973s-0.608 0.403-0.973 0.403z"></path>
<path fill="#7c3aed" style="fill: var(--color1, #7c3aed)" d="M11.355 31.14h-9.634c-0.365 0-0.715-0.145-0.973-0.403s-0.403-0.608-0.403-0.973v-9.634c0-0.365 0.145-0.715 0.403-0.973s0.608-0.403 0.973-0.403h9.634c0.365 0 0.715 0.145 0.973 0.403s0.403 0.608 0.403 0.973v9.634c0 0.365-0.145 0.715-0.403 0.973s-0.608 0.403-0.973 0.403z"></path>
<path fill="#1db5be" style="fill: var(--color2, #1db5be)" d="M16.86 2.237h13.763v2.753h-13.763v-2.753z"></path>
<path fill="#1db5be" style="fill: var(--color2, #1db5be)" d="M30.624 20.129h-13.763v2.753h13.763v-2.753z"></path>
<path fill="#c4b5fd" style="fill: var(--color3, #c4b5fd)" d="M30.624 27.011h-13.763v2.753h13.763v-2.753z"></path>
<path fill="#c4b5fd" style="fill: var(--color3, #c4b5fd)" d="M30.624 9.118h-13.763v2.753h13.763v-2.753z"></path>
</symbol>
<symbol id="icon-Group3" viewBox="0 0 31 32">
<path fill="#c4b5fd" style="fill: var(--color3, #c4b5fd)" d="M5.849 0.86h-4.129c-0.365 0-0.715 0.145-0.973 0.403s-0.403 0.608-0.403 0.973v27.527c0 0.365 0.145 0.715 0.403 0.973s0.608 0.403 0.973 0.403h4.129v-30.28z"></path>
<path fill="#7c3aed" style="fill: var(--color1, #7c3aed)" d="M8.602 31.14h13.763v-30.28h-13.763v30.28zM15.484 25.634c-0.365 0-0.715-0.145-0.973-0.403s-0.403-0.608-0.403-0.973c0-0.365 0.145-0.715 0.403-0.973s0.608-0.403 0.973-0.403c0.365 0 0.715 0.145 0.973 0.403s0.403 0.608 0.403 0.973c0 0.365-0.145 0.715-0.403 0.973s-0.608 0.403-0.973 0.403zM15.484 6.366c0.365 0 0.715 0.145 0.973 0.403s0.403 0.608 0.403 0.973-0.145 0.715-0.403 0.973c-0.258 0.258-0.608 0.403-0.973 0.403s-0.715-0.145-0.973-0.403c-0.258-0.258-0.403-0.608-0.403-0.973s0.145-0.715 0.403-0.973c0.258-0.258 0.608-0.403 0.973-0.403zM15.484 14.624c0.365 0 0.715 0.145 0.973 0.403s0.403 0.608 0.403 0.973c0 0.365-0.145 0.715-0.403 0.973s-0.608 0.403-0.973 0.403c-0.365 0-0.715-0.145-0.973-0.403s-0.403-0.608-0.403-0.973c0-0.365 0.145-0.715 0.403-0.973s0.608-0.403 0.973-0.403z"></path>
<path fill="#1db5be" style="fill: var(--color2, #1db5be)" d="M29.247 0.86h-4.129v30.28h4.129c0.365 0 0.715-0.145 0.973-0.403s0.403-0.608 0.403-0.973v-27.527c0-0.365-0.145-0.715-0.403-0.973s-0.608-0.403-0.973-0.403z"></path>
</symbol>
<symbol id="icon-Group2" viewBox="0 0 27 32">
<path fill="#c4b5fd" style="fill: var(--color3, #c4b5fd)" d="M25.212 31.515h-11.636c-0.343 0-0.672-0.136-0.914-0.379s-0.379-0.571-0.379-0.914v-2.586c0-0.343 0.136-0.672 0.379-0.914s0.571-0.379 0.914-0.379h11.636c0.343 0 0.672 0.136 0.914 0.379s0.379 0.571 0.379 0.914v2.586c0 0.343-0.136 0.672-0.379 0.914s-0.571 0.379-0.914 0.379z"></path>
<path fill="#1db5be" style="fill: var(--color2, #1db5be)" d="M25.212 0.485h-23.273c-0.343 0-0.672 0.136-0.914 0.379s-0.379 0.571-0.379 0.914v2.586c0 0.343 0.136 0.672 0.379 0.914s0.571 0.379 0.914 0.379h23.273c0.343 0 0.672-0.136 0.914-0.379s0.379-0.571 0.379-0.914v-2.586c0-0.343-0.136-0.672-0.379-0.914s-0.571-0.379-0.914-0.379z"></path>
<path fill="#7c3aed" style="fill: var(--color1, #7c3aed)" d="M25.212 8.242h-23.273c-0.343 0-0.672 0.136-0.914 0.379s-0.379 0.571-0.379 0.914v12.929c0 0.343 0.136 0.672 0.379 0.914s0.571 0.379 0.914 0.379h23.273c0.343 0 0.672-0.136 0.914-0.379s0.379-0.571 0.379-0.914v-12.929c0-0.343-0.136-0.672-0.379-0.914s-0.571-0.379-0.914-0.379z"></path>
</symbol>
<symbol id="icon-Base-feature-icon-1" viewBox="0 0 31 32">
<path fill="#c4b5fd" style="fill: var(--color3, #c4b5fd)" d="M23.273 13.414h7.758l-3.879-5.172-3.879 5.172zM23.273 18.586h7.758l-3.879 5.172-3.879-5.172z"></path>
<path fill="#7c3aed" style="fill: var(--color1, #7c3aed)" d="M1.293 0.485h7.758v31.030h-7.758c-0.343 0-0.672-0.136-0.914-0.379s-0.379-0.571-0.379-0.914v-28.444c0-0.343 0.136-0.672 0.379-0.914s0.571-0.379 0.914-0.379z"></path>
<path fill="#1db5be" style="fill: var(--color2, #1db5be)" d="M11.636 0.485h7.758c0.343 0 0.672 0.136 0.914 0.379s0.379 0.571 0.379 0.914v28.444c0 0.343-0.136 0.672-0.379 0.914s-0.571 0.379-0.914 0.379h-7.758v-31.030z"></path>
</symbol>
</defs>
</svg>
