<svg aria-hidden="true" style="position: absolute; width: 0; height: 0; overflow: hidden;" version="1.1" xmlns="http://www.w3.org/2000/svg" xmlns:xlink="http://www.w3.org/1999/xlink">
<defs>
<symbol id="icon-svg-1" viewBox="0 0 32 32">
<path fill="#c4b5fd" style="fill: var(--color1, #c4b5fd)" d="M24 13.333h8l-4-5.333-4 5.333zM24 18.667h8l-4 5.333-4-5.333z"></path>
<path fill="#7c3aed" style="fill: var(--color2, #7c3aed)" d="M1.333 0h8v32h-8c-0.736-0.001-1.332-0.597-1.333-1.333v-29.334c0-0.736 0.597-1.333 1.333-1.333v0z"></path>
<path fill="#1db5be" style="fill: var(--color3, #1db5be)" d="M12 0h8c0.736 0 1.333 0.597 1.333 1.333v0 29.334c0 0.736-0.597 1.333-1.333 1.333v0h-8v-32z"></path>
</symbol>
<symbol id="icon-svg-2" viewBox="0 0 32 32">
<path fill="#7c3aed" style="fill: var(--color2, #7c3aed)" d="M4.622 0.355h27.023l-4.267 8.533h-27.023l4.267-8.533z"></path>
<path fill="#1db5be" style="fill: var(--color3, #1db5be)" d="M4.622 11.733h27.023l-4.267 8.533h-27.023l4.267-8.533z"></path>
<path fill="#c4b5fd" style="fill: var(--color1, #c4b5fd)" d="M4.622 23.111h27.023l-4.267 8.533h-27.023l4.267-8.533z"></path>
</symbol>
<symbol id="icon-svg-3" viewBox="0 0 32 32">
<path fill="#1db5be" style="fill: var(--color3, #1db5be)" d="M31.645 7.467v-5.689c0-0.786-0.637-1.423-1.423-1.423v0h-28.444c-0 0-0.001 0-0.001 0-0.785 0-1.422 0.637-1.422 1.422 0 0 0 0.001 0 0.001v-0 5.689h31.29z"></path>
<path fill="#c4b5fd" style="fill: var(--color1, #c4b5fd)" d="M0.355 10.311v19.91c0 0 0 0.001 0 0.001 0 0.785 0.637 1.422 1.422 1.422 0 0 0.001 0 0.001 0h7.11v-21.333h-8.533z"></path>
<path fill="#7c3aed" style="fill: var(--color2, #7c3aed)" d="M11.733 31.645h18.489c0 0 0.001 0 0.001 0 0.785 0 1.422-0.637 1.422-1.422 0-0 0-0.001 0-0.001v0-19.91h-19.911v21.333z"></path>
</symbol>
<symbol id="icon-svg-4" viewBox="0 0 28 32">
<path fill="#c4b5fd" style="fill: var(--color1, #c4b5fd)" d="M26 32h-12c-0.736-0.001-1.332-0.597-1.333-1.333v-2.667c0-0.736 0.597-1.333 1.333-1.333v0h12c0.736 0 1.333 0.597 1.333 1.333v0 2.667c0 0.736-0.597 1.333-1.333 1.333v0z"></path>
<path fill="#1db5be" style="fill: var(--color3, #1db5be)" d="M26 0h-24c-0.736 0-1.333 0.597-1.333 1.333v0 2.667c0 0.736 0.597 1.333 1.333 1.333v0h24c0.736 0 1.333-0.597 1.333-1.333v0-2.667c0-0.736-0.597-1.333-1.333-1.333v0z"></path>
<path fill="#7c3aed" style="fill: var(--color2, #7c3aed)" d="M26 8h-24c-0.736 0-1.333 0.597-1.333 1.333v13.334c0 0.736 0.597 1.333 1.333 1.333v0h24c0.736 0 1.333-0.597 1.333-1.333v0-13.334c0-0.736-0.597-1.333-1.333-1.333v0z"></path>
</symbol>
<symbol id="icon-svg-5" viewBox="0 0 32 32">
<path fill="#c4b5fd" style="fill: var(--color1, #c4b5fd)" d="M6.045 0.355h-4.267c-0 0-0.001 0-0.001 0-0.785 0-1.422 0.637-1.422 1.422 0 0 0 0.001 0 0.001v-0 28.444c0 0 0 0.001 0 0.001 0 0.785 0.637 1.422 1.422 1.422 0 0 0.001 0 0.001 0h4.267v-31.29z"></path>
<path fill="#7c3aed" style="fill: var(--color2, #7c3aed)" d="M8.889 31.645h14.223v-31.29h-14.223v31.29zM16 25.955c-0.785 0-1.422-0.637-1.422-1.422s0.637-1.422 1.422-1.422v0c0.785 0 1.422 0.637 1.422 1.422s-0.637 1.422-1.422 1.422v0zM16 6.045c0.786 0 1.422 0.637 1.422 1.422s-0.637 1.422-1.422 1.422v0c-0.786 0-1.422-0.637-1.422-1.422s0.637-1.422 1.422-1.422v0zM16 14.578c0.785 0 1.422 0.637 1.422 1.422s-0.637 1.422-1.422 1.422v0c-0.785 0-1.422-0.637-1.422-1.422s0.637-1.422 1.422-1.422v0z"></path>
<path fill="#1db5be" style="fill: var(--color3, #1db5be)" d="M30.222 0.355h-4.267v31.29h4.267c0 0 0.001 0 0.001 0 0.785 0 1.422-0.637 1.422-1.422 0-0 0-0.001 0-0.001v0-28.444c0-0.786-0.637-1.423-1.423-1.423v0z"></path>
</symbol>
<symbol id="icon-svg-6" viewBox="0 0 32 32">
<path fill="#7c3aed" style="fill: var(--color2, #7c3aed)" d="M15.208 0.176l-14.427 6.74c-0.194 0.091-0.327 0.284-0.327 0.509s0.133 0.42 0.325 0.509l0.003 0.001 14.54 6.69c0.43 0.198 0.925 0.198 1.354 0l14.54-6.69c0.196-0.090 0.329-0.285 0.329-0.51 0-0.224-0.132-0.418-0.323-0.507l-0.003-0.001-14.428-6.74c-0.232-0.111-0.504-0.176-0.792-0.176s-0.56 0.065-0.803 0.181l0.011-0.005z"></path>
<path fill="#c4b5fd" style="fill: var(--color1, #c4b5fd)" opacity="0.64" d="M31.22 15.568l-2.98-1.392c-0.201-0.096-0.437-0.152-0.686-0.152-0.246 0-0.479 0.055-0.688 0.153l0.010-0.004-10.199 4.693c-0.199 0.094-0.431 0.148-0.677 0.148s-0.478-0.055-0.687-0.152l0.010 0.004-10.2-4.693c-0.199-0.094-0.432-0.148-0.677-0.148-0.249 0-0.485 0.056-0.696 0.157l0.010-0.004-2.98 1.392c-0.194 0.091-0.326 0.284-0.326 0.509 0 0.226 0.133 0.42 0.326 0.509l0.003 0.001 14.54 6.689c0.199 0.094 0.431 0.149 0.677 0.149s0.478-0.055 0.687-0.153l-0.010 0.004 14.54-6.69c0.195-0.090 0.328-0.285 0.328-0.51 0-0.224-0.132-0.417-0.322-0.507l-0.003-0.001z"></path>
<path fill="#1db5be" style="fill: var(--color3, #1db5be)" d="M31.22 24.144l-2.98-1.392c-0.201-0.096-0.437-0.152-0.686-0.152-0.246 0-0.479 0.055-0.688 0.153l0.010-0.004-10.199 4.692c-0.199 0.093-0.431 0.148-0.677 0.148s-0.478-0.055-0.687-0.152l0.010 0.004-10.2-4.693c-0.199-0.094-0.432-0.148-0.677-0.148-0.249 0-0.485 0.056-0.696 0.157l0.010-0.004-2.98 1.393c-0.193 0.091-0.324 0.284-0.324 0.508 0 0.225 0.132 0.419 0.323 0.508l0.003 0.001 14.54 6.691c0.429 0.197 0.925 0.197 1.354 0l14.54-6.69c0.195-0.090 0.328-0.285 0.328-0.51 0-0.224-0.132-0.417-0.322-0.507l-0.003-0.001z"></path>
</symbol>
</defs>
</svg>
